<mxfile host="app.diagrams.net" modified="2023-11-09T10:23:15.769Z" agent="Mozilla/5.0 (Macintosh; Intel Mac OS X 10_15_7) AppleWebKit/605.1.15 (KHTML, like Gecko) Version/15.4 Safari/605.1.15" etag="1_TqKCTyvC9djb5_WBvI" version="22.1.0" type="github">
  <diagram name="第 1 页" id="noUpslcpiCOd_kzJoU1q">
    <mxGraphModel dx="1363" dy="924" grid="1" gridSize="10" guides="1" tooltips="1" connect="1" arrows="1" fold="1" page="1" pageScale="1" pageWidth="827" pageHeight="1169" math="0" shadow="0">
      <root>
        <mxCell id="0" />
        <mxCell id="1" parent="0" />
        <mxCell id="GFcaEY6LiqkQabcYgfje-10" style="edgeStyle=orthogonalEdgeStyle;rounded=0;orthogonalLoop=1;jettySize=auto;html=1;entryX=0;entryY=0.5;entryDx=0;entryDy=0;fontStyle=1" edge="1" parent="1" source="GFcaEY6LiqkQabcYgfje-2" target="GFcaEY6LiqkQabcYgfje-6">
          <mxGeometry relative="1" as="geometry" />
        </mxCell>
        <mxCell id="GFcaEY6LiqkQabcYgfje-2" value="&lt;font face=&quot;Times New Roman&quot;&gt;&lt;font size=&quot;5&quot;&gt;X&lt;/font&gt;&lt;sup&gt;&lt;font style=&quot;font-size: 20px;&quot;&gt;1&lt;/font&gt;&lt;/sup&gt;&lt;br&gt;&lt;/font&gt;" style="whiteSpace=wrap;html=1;aspect=fixed;fontStyle=1" vertex="1" parent="1">
          <mxGeometry x="260" y="180" width="80" height="80" as="geometry" />
        </mxCell>
        <mxCell id="GFcaEY6LiqkQabcYgfje-11" style="edgeStyle=orthogonalEdgeStyle;rounded=0;orthogonalLoop=1;jettySize=auto;html=1;fontStyle=1" edge="1" parent="1" source="GFcaEY6LiqkQabcYgfje-3" target="GFcaEY6LiqkQabcYgfje-8">
          <mxGeometry relative="1" as="geometry" />
        </mxCell>
        <mxCell id="GFcaEY6LiqkQabcYgfje-3" value="&lt;font face=&quot;Times New Roman&quot;&gt;&lt;font size=&quot;5&quot;&gt;X&lt;/font&gt;&lt;span style=&quot;font-size: 20px;&quot;&gt;&lt;sup&gt;D&lt;/sup&gt;&lt;/span&gt;&lt;br&gt;&lt;/font&gt;" style="whiteSpace=wrap;html=1;aspect=fixed;fontStyle=1" vertex="1" parent="1">
          <mxGeometry x="260" y="360" width="80" height="80" as="geometry" />
        </mxCell>
        <mxCell id="GFcaEY6LiqkQabcYgfje-4" value="&lt;font style=&quot;font-size: 24px;&quot;&gt;输入特征映射&lt;/font&gt;" style="text;html=1;strokeColor=none;fillColor=none;align=center;verticalAlign=middle;whiteSpace=wrap;rounded=0;fontFamily=Times New Roman;fontStyle=1" vertex="1" parent="1">
          <mxGeometry x="110" y="300" width="110" height="30" as="geometry" />
        </mxCell>
        <mxCell id="GFcaEY6LiqkQabcYgfje-5" value="&lt;font style=&quot;font-size: 24px;&quot;&gt;.....&lt;/font&gt;" style="text;html=1;strokeColor=none;fillColor=none;align=center;verticalAlign=middle;whiteSpace=wrap;rounded=0;fontStyle=1" vertex="1" parent="1">
          <mxGeometry x="270" y="290" width="60" height="30" as="geometry" />
        </mxCell>
        <mxCell id="GFcaEY6LiqkQabcYgfje-17" style="edgeStyle=orthogonalEdgeStyle;rounded=0;orthogonalLoop=1;jettySize=auto;html=1;fontStyle=1" edge="1" parent="1" source="GFcaEY6LiqkQabcYgfje-6" target="GFcaEY6LiqkQabcYgfje-16">
          <mxGeometry relative="1" as="geometry" />
        </mxCell>
        <mxCell id="GFcaEY6LiqkQabcYgfje-6" value="" style="ellipse;whiteSpace=wrap;html=1;aspect=fixed;fontStyle=1" vertex="1" parent="1">
          <mxGeometry x="430" y="180" width="80" height="80" as="geometry" />
        </mxCell>
        <mxCell id="GFcaEY6LiqkQabcYgfje-7" value="" style="shape=sumEllipse;perimeter=ellipsePerimeter;whiteSpace=wrap;html=1;backgroundOutline=1;fontStyle=1" vertex="1" parent="1">
          <mxGeometry x="455" y="205" width="30" height="30" as="geometry" />
        </mxCell>
        <mxCell id="GFcaEY6LiqkQabcYgfje-19" style="edgeStyle=orthogonalEdgeStyle;rounded=0;orthogonalLoop=1;jettySize=auto;html=1;entryX=0;entryY=0.5;entryDx=0;entryDy=0;fontStyle=1" edge="1" parent="1" source="GFcaEY6LiqkQabcYgfje-8" target="GFcaEY6LiqkQabcYgfje-18">
          <mxGeometry relative="1" as="geometry" />
        </mxCell>
        <mxCell id="GFcaEY6LiqkQabcYgfje-8" value="" style="ellipse;whiteSpace=wrap;html=1;aspect=fixed;fontStyle=1" vertex="1" parent="1">
          <mxGeometry x="430" y="360" width="80" height="80" as="geometry" />
        </mxCell>
        <mxCell id="GFcaEY6LiqkQabcYgfje-9" value="" style="shape=sumEllipse;perimeter=ellipsePerimeter;whiteSpace=wrap;html=1;backgroundOutline=1;fontStyle=1" vertex="1" parent="1">
          <mxGeometry x="455" y="385" width="30" height="30" as="geometry" />
        </mxCell>
        <mxCell id="GFcaEY6LiqkQabcYgfje-13" style="edgeStyle=orthogonalEdgeStyle;rounded=0;orthogonalLoop=1;jettySize=auto;html=1;entryX=0.5;entryY=1;entryDx=0;entryDy=0;fontStyle=1" edge="1" parent="1" source="GFcaEY6LiqkQabcYgfje-12" target="GFcaEY6LiqkQabcYgfje-6">
          <mxGeometry relative="1" as="geometry" />
        </mxCell>
        <mxCell id="GFcaEY6LiqkQabcYgfje-12" value="&lt;font face=&quot;Times New Roman&quot; style=&quot;font-size: 22px;&quot;&gt;滤波器W&lt;sup&gt;&lt;i&gt;p,&lt;/i&gt;1&lt;/sup&gt;&lt;/font&gt;" style="text;html=1;strokeColor=none;fillColor=none;align=center;verticalAlign=middle;whiteSpace=wrap;rounded=0;fontStyle=1" vertex="1" parent="1">
          <mxGeometry x="400" y="290" width="140" height="30" as="geometry" />
        </mxCell>
        <mxCell id="GFcaEY6LiqkQabcYgfje-15" style="edgeStyle=orthogonalEdgeStyle;rounded=0;orthogonalLoop=1;jettySize=auto;html=1;entryX=0.5;entryY=1;entryDx=0;entryDy=0;fontStyle=1" edge="1" parent="1" source="GFcaEY6LiqkQabcYgfje-14" target="GFcaEY6LiqkQabcYgfje-8">
          <mxGeometry relative="1" as="geometry" />
        </mxCell>
        <mxCell id="GFcaEY6LiqkQabcYgfje-14" value="&lt;font face=&quot;Times New Roman&quot; style=&quot;font-size: 22px;&quot;&gt;滤波器W&lt;sup&gt;&lt;i&gt;p,D&lt;/i&gt;&lt;/sup&gt;&lt;/font&gt;" style="text;html=1;strokeColor=none;fillColor=none;align=center;verticalAlign=middle;whiteSpace=wrap;rounded=0;fontStyle=1" vertex="1" parent="1">
          <mxGeometry x="400" y="470" width="140" height="30" as="geometry" />
        </mxCell>
        <mxCell id="GFcaEY6LiqkQabcYgfje-22" style="edgeStyle=orthogonalEdgeStyle;rounded=0;orthogonalLoop=1;jettySize=auto;html=1;entryX=0.5;entryY=0;entryDx=0;entryDy=0;fontStyle=1" edge="1" parent="1" source="GFcaEY6LiqkQabcYgfje-16" target="GFcaEY6LiqkQabcYgfje-21">
          <mxGeometry relative="1" as="geometry" />
        </mxCell>
        <mxCell id="GFcaEY6LiqkQabcYgfje-16" value="&lt;font face=&quot;Times New Roman&quot;&gt;&lt;br&gt;&lt;/font&gt;" style="whiteSpace=wrap;html=1;aspect=fixed;fontStyle=1" vertex="1" parent="1">
          <mxGeometry x="590" y="185" width="70" height="70" as="geometry" />
        </mxCell>
        <mxCell id="GFcaEY6LiqkQabcYgfje-23" style="edgeStyle=orthogonalEdgeStyle;rounded=0;orthogonalLoop=1;jettySize=auto;html=1;fontStyle=1" edge="1" parent="1" source="GFcaEY6LiqkQabcYgfje-18" target="GFcaEY6LiqkQabcYgfje-21">
          <mxGeometry relative="1" as="geometry">
            <mxPoint x="780" y="360" as="targetPoint" />
          </mxGeometry>
        </mxCell>
        <mxCell id="GFcaEY6LiqkQabcYgfje-18" value="&lt;font face=&quot;Times New Roman&quot;&gt;&lt;br&gt;&lt;/font&gt;" style="whiteSpace=wrap;html=1;aspect=fixed;fontStyle=1" vertex="1" parent="1">
          <mxGeometry x="590" y="365" width="70" height="70" as="geometry" />
        </mxCell>
        <mxCell id="GFcaEY6LiqkQabcYgfje-20" value="&lt;font style=&quot;font-size: 24px;&quot;&gt;.....&lt;/font&gt;" style="text;html=1;strokeColor=none;fillColor=none;align=center;verticalAlign=middle;whiteSpace=wrap;rounded=0;fontStyle=1" vertex="1" parent="1">
          <mxGeometry x="595" y="290" width="60" height="30" as="geometry" />
        </mxCell>
        <mxCell id="GFcaEY6LiqkQabcYgfje-24" style="edgeStyle=orthogonalEdgeStyle;rounded=0;orthogonalLoop=1;jettySize=auto;html=1;fontStyle=1" edge="1" parent="1" source="GFcaEY6LiqkQabcYgfje-21">
          <mxGeometry relative="1" as="geometry">
            <mxPoint x="880" y="315" as="targetPoint" />
          </mxGeometry>
        </mxCell>
        <mxCell id="GFcaEY6LiqkQabcYgfje-21" value="&lt;font face=&quot;Times New Roman&quot; style=&quot;font-size: 24px;&quot;&gt;求和&lt;/font&gt;" style="ellipse;whiteSpace=wrap;html=1;aspect=fixed;fontStyle=1" vertex="1" parent="1">
          <mxGeometry x="740" y="275" width="80" height="80" as="geometry" />
        </mxCell>
        <mxCell id="GFcaEY6LiqkQabcYgfje-29" style="edgeStyle=orthogonalEdgeStyle;rounded=0;orthogonalLoop=1;jettySize=auto;html=1;entryX=0;entryY=0.5;entryDx=0;entryDy=0;fontStyle=1" edge="1" parent="1" source="GFcaEY6LiqkQabcYgfje-25" target="GFcaEY6LiqkQabcYgfje-28">
          <mxGeometry relative="1" as="geometry" />
        </mxCell>
        <mxCell id="GFcaEY6LiqkQabcYgfje-25" value="&lt;font size=&quot;5&quot; face=&quot;Times New Roman&quot;&gt;+&lt;/font&gt;" style="ellipse;whiteSpace=wrap;html=1;aspect=fixed;fontStyle=1" vertex="1" parent="1">
          <mxGeometry x="880" y="275" width="80" height="80" as="geometry" />
        </mxCell>
        <mxCell id="GFcaEY6LiqkQabcYgfje-27" style="edgeStyle=orthogonalEdgeStyle;rounded=0;orthogonalLoop=1;jettySize=auto;html=1;entryX=0.5;entryY=1;entryDx=0;entryDy=0;fontStyle=1" edge="1" parent="1" source="GFcaEY6LiqkQabcYgfje-26" target="GFcaEY6LiqkQabcYgfje-25">
          <mxGeometry relative="1" as="geometry" />
        </mxCell>
        <mxCell id="GFcaEY6LiqkQabcYgfje-26" value="&lt;font face=&quot;Times New Roman&quot;&gt;&lt;span style=&quot;font-size: 22px;&quot;&gt;偏置&lt;i&gt;b&lt;sup&gt;p&lt;/sup&gt;&lt;/i&gt;&lt;/span&gt;&lt;/font&gt;" style="text;html=1;strokeColor=none;fillColor=none;align=center;verticalAlign=middle;whiteSpace=wrap;rounded=0;fontStyle=1" vertex="1" parent="1">
          <mxGeometry x="850" y="405" width="140" height="30" as="geometry" />
        </mxCell>
        <mxCell id="GFcaEY6LiqkQabcYgfje-31" style="edgeStyle=orthogonalEdgeStyle;rounded=0;orthogonalLoop=1;jettySize=auto;html=1;entryX=0;entryY=0.5;entryDx=0;entryDy=0;fontStyle=1" edge="1" parent="1" source="GFcaEY6LiqkQabcYgfje-28" target="GFcaEY6LiqkQabcYgfje-30">
          <mxGeometry relative="1" as="geometry" />
        </mxCell>
        <mxCell id="GFcaEY6LiqkQabcYgfje-28" value="&lt;font size=&quot;5&quot; face=&quot;Times New Roman&quot;&gt;&lt;i&gt;f&lt;/i&gt;&lt;/font&gt;" style="ellipse;whiteSpace=wrap;html=1;aspect=fixed;fontStyle=1" vertex="1" parent="1">
          <mxGeometry x="1020" y="275" width="80" height="80" as="geometry" />
        </mxCell>
        <mxCell id="GFcaEY6LiqkQabcYgfje-30" value="&lt;font face=&quot;Times New Roman&quot;&gt;&lt;font size=&quot;5&quot;&gt;Y&lt;sup&gt;&lt;i&gt;p&lt;/i&gt;&lt;/sup&gt;&lt;/font&gt;&lt;br&gt;&lt;/font&gt;" style="whiteSpace=wrap;html=1;aspect=fixed;fontStyle=1" vertex="1" parent="1">
          <mxGeometry x="1160.5" y="275" width="80" height="80" as="geometry" />
        </mxCell>
        <mxCell id="GFcaEY6LiqkQabcYgfje-32" value="&lt;font size=&quot;5&quot;&gt;输出特征映射&lt;/font&gt;" style="text;html=1;strokeColor=none;fillColor=none;align=center;verticalAlign=middle;whiteSpace=wrap;rounded=0;fontFamily=Times New Roman;fontStyle=1" vertex="1" parent="1">
          <mxGeometry x="1145.5" y="400" width="110" height="30" as="geometry" />
        </mxCell>
      </root>
    </mxGraphModel>
  </diagram>
</mxfile>
